<svg id="Слой_2_копия_" data-name="Слой 2 (копия)" xmlns="http://www.w3.org/2000/svg" viewBox="0 0 181.31 1082.18"><title>Скобка. Вектор</title><path d="M604.89,978.6c2.91-1.91,56.44-19.93,61.39-82.72,2.4-23.39,4-47,4.14-70.46.63-82.35-.34-164.72,1.16-247,.44-24.41,5.1-49.21,11.2-73,10.87-42.3,40.9-63.76,83.41-68.91,5.74-.7,10-.59,19.82-.35-23.86,12.33-57.34,17.52-70.06,81.64a599,599,0,0,0-7.23,87.52c-1,77.71.17,155.44-.64,233.15-.23,22.25-3,44.67-6.77,66.65-10.31,50.56-40.33,60.33-60,73.41,16.11,10.72,63.39,24.81,64.69,108.45,2.09,74.55,1.34,149.17,2.59,223.75.63,37.42,1.93,74.91,5.19,112.16,1.38,15.78,7.17,31.65,13.44,46.42,11,25.82,31.88,40.83,59,48-16.48,2.25-32.31-.51-47.78-5.48-33.35-10.71-51.14-36-57.42-68.32-5.7-29.39-9.39-59.57-9.94-89.47-1.37-74.6.1-149.25-.74-223.86a636.88,636.88,0,0,0-6.37-81.83C660.33,1015.67,639,995.33,604.89,978.6Z" transform="translate(-604.89 -435.97)"/></svg>